# xmcd
#
# Track frame offsets: 
#        150
#        22472
#        43075
#        62775
#        80266
#        97327
#        117614
#        135434
#        150919
#        174604
#        189945
#        210020
#        234705
#
# Disc length: 3308 seconds
#
# Revision: 0
# Processed by: cddbd v1.5.2PL0 Copyright (c) Steve Scherf et al.
# Submitted via: ExactAudioCopy v0.99pb4
#
DISCID=ae0cea0d
DTITLE=Etta James - Live And In The Studio [CD3)
DYEAR=2009
DGENRE=Blues
TTITLE0=Intro (Respect Yourself)
TTITLE1=I'd Rather Go Blind
TTITLE2=Woman (Shake Your Booty)
TTITLE3=Dust My Broom
TTITLE4=All The Way Down (Summer Heat)
TTITLE5=Drown In My Own Tears
TTITLE6=I Can't Turn You Loose
TTITLE7=Rock Me Baby
TTITLE8=Stormy Monday
TTITLE9=Something's Got A Hold On Me
TTITLE10=Ain't Nobody's Business
TTITLE11=I'd Rather Go Blind
TTITLE12=Take My Hand, Precious Lord
EXTD=
EXTT0=
EXTT1=
EXTT2=
EXTT3=
EXTT4=
EXTT5=
EXTT6=
EXTT7=
EXTT8=
EXTT9=
EXTT10=
EXTT11=
EXTT12=
PLAYORDER=
